<?xml version="1.0" standalone="no"?>
<!DOCTYPE svg PUBLIC "-//W3C//DTD SVG 20010904//EN"
 "http://www.w3.org/TR/2001/REC-SVG-20010904/DTD/svg10.dtd">
<svg version="1.0" xmlns="http://www.w3.org/2000/svg"
 width="549.000000pt" height="454.000000pt" viewBox="0 0 549.000000 454.000000"
 preserveAspectRatio="xMidYMid meet">

<g transform="translate(0.000000,454.000000) scale(0.100000,-0.100000)"
fill="#000000" stroke="none">
<path d="M2804 3908 c-64 -101 -153 -239 -197 -308 -96 -150 -92 -144 -349
-540 -112 -173 -243 -376 -292 -450 -48 -74 -172 -266 -274 -425 -197 -306
-232 -360 -431 -668 -134 -206 -361 -564 -608 -956 -84 -133 -153 -249 -153
-256 0 -7 7 -16 16 -19 9 -3 236 -6 504 -6 l489 0 24 23 c14 12 76 110 138
217 173 299 1122 1879 1212 2018 43 67 83 122 88 122 26 0 212 -306 539 -890
20 -36 105 -184 190 -330 135 -233 253 -441 393 -688 25 -44 49 -75 61 -78 12
-2 179 -3 371 -2 340 3 350 4 347 22 -2 11 -36 76 -74 145 -39 69 -154 277
-255 461 -102 184 -229 412 -283 505 -105 183 -396 692 -465 815 -23 41 -102
179 -175 305 -73 127 -243 424 -377 660 -274 483 -288 505 -307 505 -8 0 -67
-82 -132 -182z m171 -295 c-46 -83 -94 -159 -367 -578 -290 -446 -325 -500
-480 -736 -74 -112 -170 -259 -214 -327 -548 -846 -936 -1433 -958 -1451 -12
-10 -20 -11 -28 -3 -8 8 3 36 43 104 56 98 356 569 489 767 42 64 180 274 305
466 125 193 249 382 275 420 26 39 114 174 195 300 217 337 647 981 700 1048
65 82 88 77 40 -10z m164 -1007 c-3 -3 -11 5 -18 17 -13 21 -12 21 5 5 10 -10
16 -20 13 -22z m93 -156 c31 -52 88 -151 128 -220 40 -68 82 -140 93 -160 35
-64 169 -294 212 -365 23 -38 57 -97 75 -130 18 -33 45 -80 60 -105 223 -375
397 -680 386 -680 -3 0 -23 30 -44 68 -22 37 -113 193 -202 347 -90 154 -187
321 -215 370 -28 50 -85 149 -127 220 -41 72 -127 220 -190 330 -64 110 -140
243 -170 295 -66 115 -84 148 -70 135 5 -5 34 -53 64 -105z m-829 -555 c-3 -9
-8 -14 -10 -11 -3 3 -2 9 2 15 9 16 15 13 8 -4z m-413 -675 c-6 -11 -13 -20
-16 -20 -2 0 0 9 6 20 6 11 13 20 16 20 2 0 0 -9 -6 -20z"/>
<path d="M2927 1328 c-113 -160 -147 -231 -101 -214 8 3 14 0 14 -7 0 -7 5
-18 11 -24 9 -9 23 2 56 43 25 30 50 53 56 51 13 -4 121 -184 249 -417 47 -85
126 -227 175 -315 l90 -160 833 -3 c459 -1 837 1 841 5 7 7 -48 109 -79 146
-12 14 -98 16 -773 19 -759 3 -761 3 -778 24 -9 12 -52 84 -95 160 -66 116
-201 353 -395 691 -20 35 -41 63 -48 63 -7 0 -32 -28 -56 -62z"/>
<path d="M4865 750 c9 -16 18 -30 21 -30 2 0 -2 14 -11 30 -9 17 -18 30 -21
30 -2 0 2 -13 11 -30z"/>
</g>
</svg>
